<mxfile host="app.diagrams.net" modified="2023-07-28T03:07:31.579Z" agent="Mozilla/5.0 (X11; Ubuntu; Linux x86_64; rv:109.0) Gecko/20100101 Firefox/115.0" version="21.6.5" etag="mHD4nhltO5eKHG-l1JC8" type="github">
  <diagram name="Page-1" id="QwwT5e49t1U_3ruq_o2b">
    <mxGraphModel>
      <root>
        <mxCell id="0" />
        <mxCell id="1" parent="0" />
      </root>
    </mxGraphModel>
  </diagram>
</mxfile>
